<?xml version="1.0" encoding="utf-8"?>
<!-- Generator: Adobe Illustrator 25.4.1, SVG Export Plug-In . SVG Version: 6.00 Build 0)  -->
<svg version="1.1" id="Livello_1" xmlns="http://www.w3.org/2000/svg" xmlns:xlink="http://www.w3.org/1999/xlink" x="0px" y="0px"
	 viewBox="0 0 327 75" style="enable-background:new 0 0 327 75;" xml:space="preserve">
<style type="text/css">
	.st0{fill:#146B91;}
	.st1{enable-background:new    ;}
</style>
<g>
	<g>
		<g>
			<path class="st0" d="M172.5,33.2c-1.6,2.1-3.8,3.7-6.4,4.5c-3,1-6,0.5-9-0.2c-5.1-1.2-9.2-2.9-13.9,0.5c-1.6,1.2-2.2,1.7-1.8,2.2
				c0.3,0.5,0.9,0.3,2.9-1.3c4.9-4,10.4,1.3,15.7,2.1c5.5,0.8,9.9-2.7,13.4-7.2C174.3,32.7,173.4,32,172.5,33.2z"/>
		</g>
		<g>
			<path class="st0" d="M174,27.1c-2.2-0.4-2.8,3.1-0.6,3.5C175.7,31,176.3,27.5,174,27.1z"/>
		</g>
		<g>
			<path class="st0" d="M161.1,43.3c-0.9,0-1.8-0.1-2.7-0.3c-0.8-0.2-1.8-0.7-1.4-1.4c-0.1,0.1-0.5,0.2-0.6,0.4
				c-0.4,0.7,0.6,1.2,1.4,1.4c0.9,0.2,1.8,0.3,2.7,0.3c1.8,0,3.6-0.4,5-1.2c0.2-0.1,0.4-0.3,0.5-0.3C164.8,42.9,163,43.4,161.1,43.3
				z"/>
		</g>
		<g>
			<path class="st0" d="M161.1,44.6c-0.9,0-1.8-0.1-2.7-0.3c-0.8-0.2-1.8-0.7-1.4-1.4c-0.1,0.1-0.5,0.2-0.6,0.4
				c-0.4,0.7,0.6,1.2,1.4,1.4c0.9,0.2,1.8,0.3,2.7,0.3c1.8,0,3.6-0.4,5-1.2c0.2-0.1,0.4-0.3,0.5-0.3
				C164.8,44.2,162.9,44.7,161.1,44.6z"/>
		</g>
		<g>
			<path class="st0" d="M161.1,45.9c-0.9,0-1.8-0.1-2.7-0.3c-0.8-0.2-1.8-0.7-1.4-1.4c-0.1,0.1-0.5,0.2-0.6,0.4
				c-0.4,0.7,0.6,1.2,1.4,1.4c0.9,0.2,1.8,0.3,2.7,0.3c1.8,0,3.6-0.4,5-1.2c0.2-0.1,0.4-0.3,0.5-0.3C164.8,45.5,162.9,46,161.1,45.9
				z"/>
		</g>
		<g>
			<path class="st0" d="M162.7,47c-0.6,0.1-1.2,0.1-1.7,0s-1.2-0.3-1-0.7c0,0.1-0.3,0.2-0.3,0.2c-0.2,0.4,0.5,0.6,1,0.7
				c0.6,0.1,1.2,0,1.7,0c1.2-0.1,2.3-0.5,3.1-1.1c0.1-0.1,0.2-0.2,0.3-0.2C165,46.4,163.9,46.8,162.7,47z"/>
		</g>
		<g>
			<path class="st0" d="M162.8,47.7c-0.6,0.1-1.2,0.1-1.7,0s-1.2-0.3-1-0.7c0,0.1-0.3,0.2-0.3,0.2c-0.2,0.4,0.5,0.6,1,0.7
				c0.6,0.1,1.2,0,1.7,0c1.2-0.1,2.3-0.5,3.1-1.1c0.1-0.1,0.2-0.2,0.3-0.2C165.1,47.2,164,47.6,162.8,47.7z"/>
		</g>
		<g>
			<path class="st0" d="M169.6,47.8c0-0.5-1-1.4-2.1-1.6c-0.1,0-0.1,0-0.2,0c0,0.1,0,0.2,0,0.3s-0.1,0.2-0.1,0.3
				c0.9,0.2,1.8,0.7,1.6,1.4c-1.8,0.8-3.9,1.2-6,1.3c-1.2,0-2.4-0.1-3.6-0.3c-1-0.2-2.2-0.7-2-1.4c0,0,0,0-0.1-0.1
				c-0.2,0.1-0.5,0.2-0.6,0.3c-0.6,0.9,0.9,1.4,2,1.6c1.2,0.2,2.4,0.3,3.6,0.3c2.4-0.1,4.7-0.6,6.6-1.6
				C169.1,48,169.6,47.8,169.6,47.8z"/>
		</g>
		<g>
			<g>
				<path class="st0" d="M182.1,38.1c0.1,0.1,0.2,0,0.2-0.2l-0.2-0.1V38.1z"/>
			</g>
			<g>
				<path class="st0" d="M182.5,36.7c-0.1-0.2-0.4-0.5-0.6-0.3c0.2,0.2,0.2,0.3,0.4,0.5c0,0.2-0.1,0.4-0.2,0.3
					c0.1,0.1,0,0.3,0.1,0.4c0.2-0.3,0.2-0.6,0-1C182.4,36.6,182.4,36.7,182.5,36.7z"/>
			</g>
			<g>
				<path class="st0" d="M173,19l0.1,0.1C173.1,19.1,173.1,19.1,173,19z"/>
			</g>
			<g>
				<path class="st0" d="M173,19l-0.2-0.3C172.7,18.8,172.9,18.9,173,19z"/>
			</g>
			<g>
				<path class="st0" d="M181.6,34c0,0.1,0.1,0.1,0.1,0.2C181.7,34.1,181.6,34.1,181.6,34L181.6,34z"/>
			</g>
			<g>
				<path class="st0" d="M177.4,22.7L177.4,22.7c0.1,0.1,0.2,0.1,0.2,0.1L177.4,22.7z"/>
			</g>
			<g>
				<path class="st0" d="M180,26.3c0-0.1-0.2,0-0.3,0c0.1,0,0.2,0.1,0.2,0.1S179.9,26.4,180,26.3z"/>
			</g>
			<g>
				<path class="st0" d="M182.2,32.9l0.1,0.1C182.2,33,182.2,32.9,182.2,32.9z"/>
			</g>
			<g>
				<path class="st0" d="M175.2,20.4L175.2,20.4L175.2,20.4z"/>
			</g>
			<g>
				<path class="st0" d="M182.6,38.1L182.6,38.1c0,0.1,0.1,0.1,0.1,0.1L182.6,38.1z"/>
			</g>
			<g>
				<path class="st0" d="M154.7,14.5L154.7,14.5C154.8,14.5,154.7,14.5,154.7,14.5z"/>
			</g>
			<g>
				<path class="st0" d="M136,43.2c0.1-0.5,0.4,0.6,0.4,0C136.4,43.2,136,42.7,136,43.2z"/>
			</g>
			<g>
				<path class="st0" d="M181.6,33.9c0-0.1,0-0.1,0-0.2C181.6,33.8,181.6,33.9,181.6,33.9z"/>
			</g>
			<g>
				<path class="st0" d="M136.5,43.2L136.5,43.2L136.5,43.2C136.5,43.1,136.5,43.1,136.5,43.2z"/>
			</g>
			<g>
				<path class="st0" d="M146,18.3h0.1H146z"/>
			</g>
			<g>
				<path class="st0" d="M152.4,15.5h-0.2C152.3,15.5,152.4,15.5,152.4,15.5z"/>
			</g>
			<g>
				<path class="st0" d="M176.5,52.5c0.1,0,0.2,0,0.2,0C176.6,52.5,176.9,52,176.5,52.5z"/>
			</g>
			<g>
				<path class="st0" d="M181.7,34c-0.1,0-0.1,0-0.1-0.1C181.6,33.9,181.6,34,181.7,34L181.7,34z"/>
			</g>
			<g>
				<path class="st0" d="M153.3,59.6h0.1C153.4,59.6,153.3,59.6,153.3,59.6z"/>
			</g>
			<g>
				<path class="st0" d="M176.7,52.5L176.7,52.5L176.7,52.5z"/>
			</g>
			<g>
				<path class="st0" d="M143.6,22.4c0,0-0.1,0-0.1-0.1v-0.1l0,0c0,0-0.1,0-0.1,0.1l0,0l0,0l-0.1,0.1c-0.1,0.1-0.1,0.1-0.2,0.2
					c0,0.1-0.1,0.1-0.1,0.2C143.1,23,143.4,22.8,143.6,22.4C143.7,22.4,143.6,22.4,143.6,22.4z"/>
			</g>
			<g>
				<path class="st0" d="M144.8,19.4l0.1-0.1l0,0v-0.1c-0.4,0.4-0.3,0.8-0.9,1.2c0.1-0.3-0.3-0.1,0.1-0.5c-0.2,0.2-0.4,0.3-0.3,0.4
					c-0.1,0-0.2,0.2-0.3,0.3l-0.1,0.1l0,0c-0.1,0.1-0.2,0.2-0.3,0.4c0,0.1,0,0.1-0.1,0.2c0,0,0,0,0,0.1s-0.1,0.2-0.1,0.3
					c0,0,0,0,0.1,0c0,0,0,0-0.1,0c0,0.2-0.1,0.3-0.1,0.5l0,0l0,0c0,0,0,0,0.1,0s0.1,0,0.2,0c0.1,0,0.2,0,0.3,0c0,0,0.1,0,0.2,0.1
					c0-0.2-0.1-0.4-0.1-0.6s0-0.5,0.1-0.7c0,0,0.1,0,0.2-0.1c0.1,0,0.2,0,0.3,0c0-0.1,0-0.2,0-0.4l0.1-0.1c0.1,0,0.2,0,0.3,0h0.1
					C144.5,20.1,144.7,19.8,144.8,19.4z"/>
			</g>
			<g>
				<path class="st0" d="M152.2,16.9L152.2,16.9L152.2,16.9c-0.1,0-0.2,0-0.2,0h-0.1c0,0,0,0-0.1,0l0,0c-0.1,0-0.3,0.1-0.4,0.1
					c-0.3,0.1-0.5,0.2-0.8,0.4h-0.1c0.1,0-0.2,0.2-0.2,0.3c0.4-0.3,0.9-0.4,1.4-0.6C151.9,17,152.1,17,152.2,16.9
					C152.3,16.9,152.2,16.9,152.2,16.9z"/>
			</g>
			<g>
				<path class="st0" d="M182.1,35.8c-0.2-0.3,0-0.5,0.1-0.5l0.1,0.3c0.2-0.2,0.1-0.4,0-0.7S182,34.3,182,34l0.3,0.2l-0.3-0.5
					c0.1-0.1,0.2-0.2,0.3,0c0.1-0.4-0.2-0.3-0.1-0.7c0,0,0,0,0.1,0l-0.2-0.4c0.1,0.1,0.2-0.1,0.2,0.1c0-0.4-0.1-0.6-0.2-0.8
					c-0.1-0.2-0.2-0.4-0.1-0.5v0.1c-0.4-0.9-0.2,0-0.7-0.6c0.1-0.2,0.2-0.4,0.4-0.6h-0.2c0-0.1-0.1-0.3,0-0.3
					c-0.3-0.3-0.1,0.1-0.3-0.1c0-0.3-0.1-0.5-0.2-0.8c-0.1-0.3-0.2-0.5-0.1-0.6c-0.2-0.1,0.1,0.5-0.2,0.1c0.1-0.1,0.1-0.3,0-0.4
					s-0.3-0.3-0.3-0.5c0.2,0,0.3,0.4,0.3,0c-0.2,0-0.3-0.2-0.3-0.5c-0.1-0.2-0.1-0.5-0.2-0.6c-0.1,0.1-0.2-0.1-0.4-0.3
					c-0.1-0.2-0.3-0.5-0.5-0.8c0.1,0-0.5-1-0.8-1.5l0,0c-0.3,0.1-0.6-0.4-0.9-0.7c0.1-0.1,0.2-0.1,0.4,0.1c-0.1-0.1-0.2-0.2-0.3-0.3
					c-0.1,0-0.2-0.1-0.4-0.3l0.2-0.1c-0.1-0.1-0.2-0.2-0.3-0.3c-0.1-0.1-0.2-0.2-0.3-0.3c-0.2-0.2-0.4-0.4-0.7-0.7
					c-0.2,0.1,0,0.7-0.6,0.3c0-0.1,0.1-0.2,0.3-0.1c-0.1,0-0.2-0.1-0.3-0.2l0.3,0.1c-0.2-0.3-0.2,0-0.4-0.2c0.1-0.1-0.1-0.2,0-0.3
					c0.1,0,0.1,0.2,0.2,0.2c-0.2-0.2-0.4-0.5-0.4-0.7c0,0.1-0.1,0.1-0.3,0c-0.4-0.3,0-0.2-0.2-0.5c-0.2,0-0.4-0.3-0.5-0.1
					c-0.1-0.1-0.1-0.2-0.1-0.3c-0.1,0-0.4-0.3-0.6-0.4c-0.2-0.1-0.4-0.2-0.3,0v0.1l0,0c-0.2-0.1-0.4-0.2-0.6-0.3
					c-0.2-0.1-0.4-0.3-0.6-0.4c-0.4-0.3-0.7-0.6-1.2-0.8v-0.1c-0.2-0.1-0.5-0.2-0.8-0.3c-0.3-0.1-0.5-0.2-0.7-0.2
					c-0.1-0.1-0.3-0.3-0.2-0.3c-0.4-0.1-0.5-0.1-1-0.4c0.4,0-0.1-0.2,0.4,0.1c-0.5-0.3-0.6-0.4-1.2-0.4c0.2-0.1-0.3-0.3-0.6-0.4
					l0.3,0.2c-0.3-0.1-0.5-0.2-0.8-0.3l0.2-0.2c-0.2-0.2-0.5-0.2-0.8-0.3c-0.3,0-0.5-0.1-0.7-0.1c-0.3,0-0.6,0-0.9-0.1
					c0,0,0,0-0.1,0.1v0.1c0,0,0,0-0.1,0c-0.2,0.1-0.5,0.2-0.8,0.1c-0.7-0.1-1.4-0.2-2-0.2l0,0H161c-1-0.1-2.1-0.2-3.1-0.2h-0.1
					c0,0,0,0-0.1,0c-0.5,0-1.1,0-1.6,0.1c-0.3,0-0.5,0-0.7-0.1c0,0-0.1,0.1-0.2,0.2c-0.3,0-0.7,0.2-0.9,0c0.7-0.1,0-0.2,0.4-0.3
					c-0.1,0-0.2,0-0.3,0c0,0,0-0.1,0.1-0.1c-0.8,0-0.3,0.3-1.1,0.5c0.1-0.1-0.2-0.2-0.4-0.1c0.3-0.1,0.2,0.2-0.1,0.3
					c-0.5,0-0.5,0.2-0.8,0.3h0.3c-0.1,0.1-0.3,0.2-0.6,0.4V16c-0.3,0.2-0.9,0-1.3,0.3c-0.3,0-0.1-0.2-0.3-0.2
					c-0.5,0.4-0.7,0.1-1.2,0.5c0.2,0.1,0.3,0-0.1,0.4l0.9-0.5l-0.5,0.5c0.3-0.1,0.6-0.4,0.8-0.4c-0.2,0.2-0.2,0.2,0,0.3
					c-0.5,0-0.7,0.5-1.2,0.5l-0.2-0.4c-0.4,0.1-0.7,0.3-1,0.5s-0.6,0.5-1,0.7c0.1,0,0.2-0.1,0.3-0.1c0,0.2-0.5,0.3-0.7,0.6
					c-0.1-0.1-0.2-0.1-0.4-0.1c0.1,0.1-0.3,0.2-0.4,0.5l0,0c0,0.3-0.1,0.6,0,0.8l-0.1,0.1c-0.1,0-0.1,0-0.2,0
					c-0.1,0.3-0.2,0.6-0.2,0.9l-0.1,0.1l0,0h0.1c0,0.1,0,0.3,0,0.4c0.2-0.1,0.3-0.3,0.4-0.4c0.2-0.3,0.4-0.5,0.8-0.4
					c0.9-0.9,1.8-1.6,2.8-2.2c0.1,0.2-0.2,0.3-0.5,0.5s-0.5,0.3-0.4,0.4c0.2-0.2,0.4-0.3,0.6-0.5c0.2-0.1,0.3-0.3,0.5-0.4
					c0.3-0.3,0.7-0.5,1.2-0.7l0,0c-0.1,0-0.2,0-0.3,0s-0.3-0.1-0.1-0.1c0.3-0.2,0.6-0.3,0.9-0.4c0.4-0.1,0.8-0.2,1.2-0.2
					c0,0,0.4,0,0.4,0.1c0.1,0,0.1-0.1,0.2-0.1c0.1,0,0.2-0.1,0.3-0.1c0,0-0.1,0.1-0.2,0.1c0.2-0.1,0.4-0.1,0.4-0.2l-0.2,0.1
					c-0.3-0.1,0.6-0.6,0.6-0.7c-0.2,0.5,0.9-0.1,0.6,0.5c0.1-0.1,0.2-0.2,0.2-0.2c0.2,0,0.3,0,0.1,0.2c0.3-0.1,0.4-0.2,0.5-0.3
					c0.1-0.1,0.2-0.1,0.5-0.2c0,0.1-0.1,0.1-0.2,0.2c0.3-0.2,0.6-0.4,1.1-0.4c0,0,0,0.1-0.1,0.1c0.4-0.1,0.8-0.2,1.1-0.3
					c0.2-0.1,0.4-0.1,0.6-0.1c0.2,0,0.4,0,0.7,0c-0.3,0.3,0.3,0.1,0.4,0.4c0.2,0,0.3-0.1,0.5-0.1l-0.2-0.1c0.5,0,0.9-0.2,1.3-0.1
					c-0.1,0-0.2,0.1-0.3,0.1c0.3,0,0.6,0,0.9,0l-0.5-0.1c0.5-0.1,0-0.3,0.6-0.2c-0.1,0,0.5,0,0.7,0.2l0,0c0.2-0.1,0.5-0.1,0.8,0
					c0.1,0.1-0.1,0.3-0.1,0.3c0.3-0.2,1.1,0.1,1.4,0c-0.1,0-0.1,0.2-0.1,0.2l0.2-0.1c0.2,0.1,0.2,0.1,0.2,0.2
					c0.6,0.2-0.1-0.4,0.6-0.1c-0.1,0,0,0-0.2,0c0.7,0.3,1.5,0.3,2.1,0.6c0.1,0.3-0.6-0.1-0.4,0.2c1,0.3,2.1,0.4,2.9,0.9l-0.1-0.1
					c0.3-0.3,0.6,0.5,1.1,0.6c-0.1,0-0.2,0.1-0.2,0.1c0.3,0.2,0.6,0.3,0.9,0.5c0.3,0.2,0.7,0.3,1.2,0.6h-0.2
					c0.3,0.3,0.8,0.6,1.1,0.9c0.2,0,0.3,0.2,0.3,0c0.1,0.2,0.2,0.3,0.3,0.4s0.2,0.2,0.3,0.3c0.2,0.2,0.5,0.4,0.7,0.6
					s0.5,0.3,0.7,0.6c0.2,0.2,0.4,0.4,0.5,0.7c-0.1-0.1-0.3-0.2-0.2-0.1c0.3,0.2,0.5,0.5,0.7,0.7c0.1-0.2,0-0.2-0.1-0.4
					c0.2,0,0.4,0.2,0.6,0.4c-0.4-0.3-0.2,0.2-0.1,0.4c0-0.1,0.1,0,0.1-0.1c0.1,0.6,0.3-0.1,0.6,0.5h-0.1c0.2,0.2,0.4,0.3,0.6,0.6
					c-0.1,0.2-0.2-0.2-0.4-0.1c0.2,0.3,0.8,0.4,0.8,0.9c-0.1-0.1-0.3-0.3-0.4-0.4c0,0.4,0.1,0.5,0.2,0.7l0,0
					c0.1,0.2,0.2,0.4,0.3,0.6c0-0.1,0-0.1,0-0.2c0.3,0.1,0.5,0.3,0.6,0.5c0.1,0.1,0.1,0.2,0.2,0.4c0.1,0.1,0.2,0.3,0.3,0.4
					c-0.6-0.4-0.2,0-0.4,0c0,0.2,0.1,0.4,0,0.4c0.1,0.1,0.2,0.2,0.2,0.4c0,0.1,0.1,0.3,0.3,0.5c-0.1,0,0.1,0.3-0.1,0.3
					c0.2,0.4,0.1-0.1,0.2-0.1c0.2,0.2,0.3,0.6,0.4,1c0,0.1,0,0.2,0.1,0.3c0,0.1,0.1,0.2,0.1,0.3c0.1,0.2,0.2,0.4,0.3,0.6
					c0.2,0.4,0.3,0.6,0.5,0.8c0.1,0.1,0.1,0.2,0.2,0.3c0.1,0.1,0.1,0.3,0.2,0.4c-0.1,0.3-0.3-0.1-0.3-0.1c0,0.4,0.1,0.7,0.2,1.1
					c-0.1-0.1-0.1,0-0.2,0.2c0.1,0.3,0.3,0.2,0.3,0.6c-0.1-0.1-0.2-0.1-0.3-0.3c0.1,0.2,0.1,0.3,0.2,0.5c0.1,0.2,0.1,0.3,0.2,0.5
					c-0.1,0.1-0.2-0.2-0.3-0.3c0.1,0.4,0.2,1,0.4,1.2v-0.2C182.2,35.9,182.1,35.8,182.1,35.8z"/>
			</g>
			<g>
				<path class="st0" d="M139.8,27.2c0-0.4,0-0.9,0-1.3l0,0c0-0.2,0-0.4,0.1-0.5l0.1-0.1c0-0.2,0.1-0.3,0.1-0.5c0,0,0.1-0.1,0.2-0.1
					c0-0.1,0-0.2,0.1-0.3l0,0c-0.2,0.3-0.3,0.5-0.5,0.7c0-0.1-0.1,0,0-0.1c-0.5,0.5,0.1,0.6-0.4,1.2c-0.2,0.1-0.2,0-0.1-0.1
					c0.1-0.1,0.1-0.2,0-0.1c-0.2-0.1-0.3,0.1-0.4,0.4c-0.1,0.2-0.2,0.5-0.4,0.7c0.1,0.2,0.2,0.5,0.3,0.7l0,0v0.1c0-0.5,0-1,0.1-1.5
					c0-0.1,0.6-0.1,0.7,0l0,0l0,0l0,0c0,0.1,0.1,0.1,0.1,0.2c0,0,0,0.1-0.1,0.1c0,0.6,0,1.2-0.1,1.8c0.2-0.3,0.3-0.7,0.4-1
					c0,0.1,0.1,0.1,0,0.3c0.1-0.1,0.2-0.2,0.3-0.4C140,27.3,139.8,27.2,139.8,27.2z"/>
			</g>
			<g>
				<path class="st0" d="M180,46.6c0.1,0,0.2,0,0.3,0c0-0.2,0.1-0.4,0.1-0.6c0-0.1,0.1-0.1,0.3-0.1c0.1-0.5,0.1-1.1,0.1-1.6
					c-0.1,0.2-0.2,0.3-0.3,0.2c0.1,0.2,0.1,0.5,0,0.9c0,0.2-0.1,0.4-0.2,0.5c-0.1,0.2-0.1,0.3-0.1,0.5c0,0,0-0.1,0-0.2
					C180.2,46.4,180.1,46.5,180,46.6z"/>
			</g>
			<g>
				<path class="st0" d="M162.9,60.3l0.1-0.1c-0.6,0-0.6,0.5-1.2,0.4l0.1-0.1c-0.7,0-1.4,0.1-2,0.1c-0.2,0-0.3,0-0.5,0s-0.3,0-0.5,0
					c-0.3,0-0.6-0.1-0.8-0.2c-0.1,0.1-0.4,0.1-0.7,0c-0.3,0-0.6-0.1-0.7,0.1c-0.4-0.2-0.5-0.2-0.6-0.3c-0.2-0.1-0.4-0.2-0.9-0.3
					c-0.3-0.1-0.5,0.2-0.8,0.1v-0.2l-0.5,0.1c-0.1-0.1-0.1-0.2-0.2-0.3h-0.3c0.1,0,0.2,0.2,0.2,0.2c-0.3,0-0.6-0.1-0.8-0.3
					c-0.2-0.1-0.4-0.3-0.4-0.3l-0.6-0.1c-0.2,0-0.4-0.1-0.6-0.1c0-0.1,0.2,0,0.3,0c-0.5-0.1,0.1-0.2-0.5-0.3
					c0.1,0.1-0.1,0.1-0.1,0.1c-0.1-0.1-0.3-0.2-0.6-0.4c-0.2-0.1-0.5-0.2-0.7-0.3l0.2-0.1c-0.4-0.2-0.8-0.4-1.2-0.6
					c-0.2-0.1-0.4-0.2-0.7-0.3c-0.2-0.1-0.4-0.3-0.6-0.4c0.3,0.3,0.1,0.4-0.2,0.3v-0.3c-0.2,0,0.2,0.2-0.2,0.2
					c-0.3-0.2-0.1-0.4,0.2-0.3l-0.4-0.2c0-0.1,0.1,0,0.2-0.1c-0.2,0-0.5-0.6-0.9-0.6v-0.1c-0.2-0.2-0.4-0.3-0.5-0.4
					c-0.2-0.1-0.3-0.2-0.4-0.3c-0.1-0.1-0.3-0.2-0.4-0.3c-0.1-0.1-0.3-0.2-0.4-0.4c-0.1,0.1-0.3-0.1-0.6-0.2
					c-0.2-0.2-0.4-0.5-0.6-0.8c-0.1-0.2-0.3-0.4-0.5-0.6c0,0,0,0-0.1,0c-0.1,0.1-0.1,0.1-0.2,0.2c0,0-0.1,0-0.2,0.1
					c-0.1,0-0.2,0-0.3,0c0,0-0.3,0-0.2-0.1s0.3-0.3,0.5-0.4c0.1,0,0.1-0.1,0.2-0.1c-0.3-0.2-0.2,0.1-0.4,0c0.1-0.1-0.3-0.7,0-0.5
					c-0.3-0.3-0.4-0.6-0.6-0.8c-0.1-0.1-0.2-0.2-0.3-0.4c-0.1-0.1-0.3-0.3-0.4-0.5c0,0.1,0,0.3,0,0.2c-0.1-0.2-0.2-0.4-0.1-0.4l0,0
					c-0.4-0.5-0.7-1.2-0.9-1.8c-0.1-0.3-0.2-0.7-0.3-0.9c-0.1-0.1-0.1-0.3-0.2-0.4c-0.1-0.1-0.1-0.2-0.2-0.3l0,0
					c-0.2-0.3-0.4-0.6-0.5-0.9c-0.1-0.5,0.2,0.2,0.2-0.1c-0.2-0.2-0.3-0.5-0.4-0.7c-0.1-0.2-0.1-0.4-0.2-0.6
					c-0.1-0.4-0.1-0.8-0.3-1.2c0-0.1,0.1-0.2,0.1-0.3s0-0.3,0-0.4c0-0.3-0.1-0.6-0.2-0.9c0-0.1-0.1-0.3-0.1-0.4l-0.1,0.1
					c0,0-0.1,0-0.2,0.1c-0.1,0-0.2,0-0.3,0s-0.2,0-0.2,0s-0.1,0,0-0.1c0.1-0.1,0.1-0.1,0.2-0.2c0.1-0.1,0.2-0.2,0.4-0.2
					c0,0,0.1,0,0.2,0v-0.1c0-0.3,0-0.6,0.1-0.8l-0.1,0.1c-0.1-0.2,0-0.3,0.1-0.5c-0.1,0-0.1,0.3-0.2,0.1c-0.1-1-0.1-2.1,0.1-3.2
					c0.2-1.1,0.5-2.1,0.8-3.1c0.1-0.4,0-0.5-0.1-0.7c-0.1-0.2-0.1-0.3,0.1-0.8l0.1,0.3c0-0.4,0.1-0.8,0.3-1.2
					c0.1-0.4,0.3-0.7,0.4-1.1c0.1-0.1,0.1-0.2,0.2-0.4c-0.2,0.1-0.6,0-0.6-0.1c-0.1-0.4-0.2-0.7-0.3-1.1c0,0.1-0.1,0.1-0.1,0.2l0,0
					c0,0.7-0.1,1.3-0.1,2c0,0.1-0.3,0.1-0.5,0.1v0.1c0-0.1,0-0.1,0-0.1c-0.1,0-0.1,0-0.1-0.1v-0.1l0,0c-0.1,0.3,0.3,0,0.2,0.6
					c-0.2,0.1-0.4,0.5-0.6,0.5c0-0.2,0.1-0.3,0.2-0.5c-0.2,0.1-0.2,0.3-0.2,0.4c0,0.2,0,0.4-0.1,0.5l-0.1-0.1
					c-0.2,0.8,0.1,0.9-0.1,1.7l0.1-0.1c0.2,0.5-0.2,0.4-0.1,0.9l-0.3,0.1c0,0.1,0,0.2,0,0.3s0,0.3,0,0.4c0,0.3,0,0.7,0,0.9
					c-0.2-0.3-0.2-1-0.3-1.5c0,0.3-0.1,1.1,0,1.3c0-0.1-0.1-0.3,0-0.4c0.2,0.4,0.2,0.9,0.2,1.5c-0.3-0.1-0.3,0.3-0.3,0.8
					s0,1-0.2,1.3c0,0.1,0,0.3,0.1,0.4c0,0.1,0,0.3,0,0.4c0,0.3,0,0.6,0,0.9c0,0.6,0,1.2,0.2,1.8c0.3-0.5,0.1,0.4,0.5,0.2
					c0.1,0.3,0.1,0.4,0.1,0.4c0,0.3,0,0.6,0,1c0,0.1-0.1,0.1-0.1,0s-0.1-0.2-0.1-0.2c0.1,0.7-0.1,0.3-0.1,0.8
					c0.1-0.1,0.3,0.2,0.3,0.6v-0.6c0.2,0.4,0.2,0.6,0.2,0.9c0,0.2,0,0.4,0.2,0.9l-0.2-0.2c0.2,0.4,0.7,1.7,1.2,2
					c0,0.1-0.1,0.3-0.2,0.1c0.1,0.3,0.3,0.5,0.4,0.8c0.2,0.3,0.3,0.5,0.5,0.8c0.2,0.2,0.4,0.5,0.5,0.7c0.2,0.2,0.3,0.5,0.4,0.7h-0.1
					c0.1,0.2,0.4,0.2,0.4,0.5c0,0-0.1,0-0.1,0.1c0.1,0.1,0.5,0.4,0.6,0.6l-0.2-0.1c0.3,0.5,0.6,0.8,0.9,1.1s0.7,0.5,1,0.8
					c-0.2,0.2,0.3,0.9,0.6,1.3l0,0c0.2,0.2,0.5,0.4,0.7,0.6c0.2,0.2,0.5,0.3,0.7,0.5s0.5,0.3,0.7,0.4c0.2,0.1,0.5,0.3,0.8,0.4
					c0.1,0.2,0.3,0.4,0.5,0.6c0.2,0.2,0.5,0.4,0.8,0.6c0.3,0.2,0.6,0.4,0.9,0.6c0.3,0.2,0.6,0.4,0.8,0.5c-0.1-0.1,0.1-0.2,0.3-0.1
					c0.2,0.2,0.8,0.1,0.6,0.4h-0.1c0.1,0.3,0.6,0.5,1.1,0.7l0.2-0.3c0.2,0.2,0.5,0.4,0.9,0.5c0.3,0.1,0.7,0.2,1.1,0.3
					c0.4,0.1,0.7,0.1,1,0.2c0.3,0.1,0.5,0.2,0.6,0.3c0.3,0,0.7,0,1,0l-0.1,0.2c0.4,0.1,0.7,0.2,1,0.2c0.2,0,0.3,0,0.5,0.1
					c0.1,0,0.2,0,0.3,0s0.2,0,0.3,0l-0.2,0.1c0.2,0,0.4-0.1,0.5-0.1c-2.7-0.5-5.3-1.6-8-2.3c-0.1,0-0.1-0.1,0-0.1
					c0.1-0.1,0.4,0,0.5,0c0.9,0.2,1.8,0.5,2.7,0.8c1.6,0.5,3.3,1.1,5,1.4c0.1-0.1,0.3-0.2,0.5-0.2l-0.1,0.2h0.1
					c0.5,0,0.9,0.1,1.4,0.1c0.2,0,0.3,0,0.5,0c0.6-0.4,1.3-0.7,2-1.1c0.4-0.2,0.7-0.5,1-0.8C163.3,60.3,163.1,60.3,162.9,60.3z"/>
			</g>
			<g>
				<path class="st0" d="M166.5,59.1L166.5,59.1c-0.1,0.1-0.2,0.1-0.2,0.2c0,0.3,0,0.6,0,0.9c0.1-0.1,0.3-0.1,0.4-0.2
					C166.6,59.7,166.6,59.4,166.5,59.1z"/>
			</g>
			<g>
				<path class="st0" d="M165.2,60.6c0.1,0,0.2-0.1,0.3-0.1c0-0.2,0-0.3,0-0.5h-0.1c0,0.1-0.1,0.2-0.2,0.3l0,0l0,0l0,0
					c-0.1,0.1-0.7,0.1-0.7,0s0-0.2,0.1-0.3c-0.1,0-0.2,0.1-0.3,0.1c-0.1,0.1-0.1,0.1-0.2,0.2c-0.1,0.2-0.3,0.4-0.4,0.6
					c0.1,0.1,0.5,0,0.6,0C164.7,60.8,164.9,60.7,165.2,60.6z"/>
			</g>
			<g>
				<path class="st0" d="M165.1,60.9c-0.4,0.1-0.8,0.2-1.1,0.1c-0.1,0-0.2,0-0.3,0c-0.1,0.2-0.2,0.3-0.3,0.5c-0.1,0.1-0.7,0.1-0.7,0
					s0.1-0.1,0.1-0.2c-0.4,0.2-0.9,0.5-1.3,0.7l-0.1,0.1l0,0c0.1,0,0.3,0,0.5,0c0.4,0,0.7-0.1,1.1-0.2c0,0,0-0.1,0-0.2
					c0,0.1,0.1,0.1,0.2,0.1l0,0c0.1,0,0.1,0,0.2,0c0.3-0.1,0.8-0.3,1-0.4v0.2c0.4-0.3,0.4-0.4,1-0.6c0.1,0,0.2,0.1,0,0.1
					c0.1,0,0.2,0,0.2-0.1s0-0.1,0-0.2C165.4,60.9,165.2,60.9,165.1,60.9z"/>
			</g>
			<g>
				<path class="st0" d="M171.9,56.6c-0.6,0.5-1.3,1.1-2.1,1.5V58c0,0,0,0-0.1,0c-0.3,0.4-0.6,0.9-0.9,1.3v0.1
					c0.7-0.6,1.2-1.3,1.8-1.9c0.1-0.1,0.7-0.1,0.7,0c-0.1,0.2-0.1,0.4,0,0.6c0.2-0.2,0.3-0.5,0.5-0.7c0,0,0,0,0.1,0
					c0-0.2,0-0.5,0.1-0.7L171.9,56.6z"/>
			</g>
			<g>
				<path class="st0" d="M178.1,50c-0.1,0.2-0.1,0.4-0.1,0.6c0,0.2-0.1,0.3-0.2,0.4c0,0-0.1,0-0.1-0.1c-0.1,0.5-0.7,1-0.9,1.6h-0.1
					c0.2,0,0.3,0.1,0.3,0.2c-0.2,0.2-0.2,0.5-0.4,0.4c0.1-0.1,0.1-0.2,0.1-0.3l-0.1,0.2c-0.3,0,0.2-0.3,0-0.4
					c-0.1,0.2-0.3,0.5-0.4,0.7c-0.1,0.2-0.3,0.4-0.4,0.5c-0.2-0.1,0.6-0.7,0.1-0.5c0.2-0.1,0.3-0.2,0.5-0.4
					c-0.6,0.1,0.3-0.3-0.3-0.2c-0.3,0.3-0.4,0.4-0.5,0.6c-0.1,0.2-0.2,0.4-0.6,0.6c0,0.2,0.2,0.1,0.1,0.3c-0.2,0.2-0.3,0.4-0.4,0.4
					c-0.1,0.1-0.3,0.1-0.4,0.1c-0.2,0-0.4,0-0.6,0.4c0,0.1,0,0.1,0,0.2c0.1-0.1,0.7-0.1,0.7,0s0,0.1,0,0.2l0,0l0,0
					c0.1-0.1,0.8-0.1,0.7,0c0,0,0,0,0,0.1h0.1c-0.1,0.1-0.2,0.2-0.2,0.3c0.3-0.4,1-1,0.9-1.2c0.5-0.3-0.1,0.4,0.5-0.2v0.1
					c0.3-0.2,0.6-0.5,0.8-0.7c0.2-0.3,0.4-0.6,0.5-0.9c0.2-0.3,0.3-0.6,0.5-0.9c0.1-0.1,0.1-0.2,0.2-0.2c0.1-0.7,0.2-1.3,0.3-2
					c0-0.1,0-0.2,0.1-0.3C178.3,50.3,178.3,49.9,178.1,50z"/>
			</g>
			<g>
				<path class="st0" d="M170.7,58.6c0-0.1,0-0.2,0-0.3c-0.3,0.4-0.7,0.7-1,1c0.1,0,0.2-0.1,0.3-0.1c0-0.1,0.1-0.1,0.1-0.2
					c0-0.1,0.4-0.1,0.6-0.1c0.2-0.1,0.3-0.1,0.5-0.2c0,0,0,0,0-0.1C171,58.7,170.7,58.7,170.7,58.6z"/>
			</g>
			<g>
				<path class="st0" d="M183.3,39.1c0-0.4-0.3-1.1-0.4-1c0,0.2-0.1,0.4-0.2,0.4v-0.4c-0.3-0.1-0.7-0.3-0.9,0.5l0.2,0.6l-0.2,0.2
					c0-0.2,0-0.3,0-0.5c-0.2,0.3,0,0.4,0,0.6c-0.1,0-0.2,0.1-0.2,0.2l0.3,0.6c-0.1,0.1-0.2-0.3-0.3,0.1c0.1,0.3,0.3-0.2,0.4,0.2
					c-0.2,0.3-0.3,0.2-0.2,0.5c-0.1,0-0.1,0-0.2-0.2c0,0.1,0,0.3,0,0.5s0,0.3,0.1,0.4c-0.1,0.1-0.1,0.4-0.2,0.5c0.1,0,0.2,0,0.2,0.1
					c0,1.3,0.1,2.6-0.3,3.9c0,0.1-0.1,0.1-0.3,0.1c-0.1,0.2-0.1,0.4-0.2,0.7c0.1,0,0.2,0,0.3,0c0.2-0.4,0.4-0.7,0.6-1.1
					c0.3-0.5,0.1-0.6,0.1-1l0.2-0.1c0-0.2,0-0.4-0.1-0.6c0-0.2,0.1-0.4,0.2-0.6c0.1-0.2,0.2-0.3,0.3-0.5s0.2-0.4,0.3-0.6
					c0.1-0.2,0.1-0.4,0-0.7l-0.2,0.1c0-0.2,0.1-0.5,0.1-0.7s0.1-0.4,0.1-0.4s-0.1-0.1,0-0.3h0.1c0-0.2,0-0.3,0-0.5l-0.1-0.5
					C182.9,39.3,183.2,40.2,183.3,39.1z"/>
			</g>
			<g>
				<path class="st0" d="M180.4,48.8c-0.1,0-0.2,0-0.3,0c0,0-0.1,0-0.1-0.1c-0.1-0.3-0.1-0.6-0.2-0.9l0,0c-0.3,0.7-0.4,1.6-0.6,2.3
					c0,0.3-0.1,0.6-0.1,0.9l0.1-0.1c0.1-0.2,0.3-0.4,0.4-0.6c0.2-0.4,0.5-0.9,0.7-1.4C180.4,48.9,180.4,48.9,180.4,48.8L180.4,48.8z
					"/>
			</g>
			<g>
				<path class="st0" d="M173.2,19.1L173.2,19.1C173.2,19.1,173.2,19.2,173.2,19.1C173.2,19.2,173.2,19.2,173.2,19.1z"/>
			</g>
			<g>
				<path class="st0" d="M177.1,23.8L177.1,23.8L177.1,23.8z"/>
			</g>
			<g>
				<path class="st0" d="M178.5,25.9l0.1,0.3C178.6,26.1,178.6,26,178.5,25.9z"/>
			</g>
			<g>
				<path class="st0" d="M179.5,27.6L179.5,27.6L179.5,27.6L179.5,27.6z"/>
			</g>
			<g>
				<path class="st0" d="M152.9,16.7C152.9,16.7,152.9,16.8,152.9,16.7C152.7,16.9,152.8,16.8,152.9,16.7z"/>
			</g>
			<g>
				<path class="st0" d="M162.1,15.5c-0.1,0-0.2,0-0.3,0.1C161.9,15.5,162.1,15.6,162.1,15.5z"/>
			</g>
			<g>
				<path class="st0" d="M161.3,15.5c0.2,0.1,0.3,0.1,0.4,0C161.6,15.5,161.5,15.5,161.3,15.5z"/>
			</g>
			<g>
				<path class="st0" d="M181.8,35.7L181.8,35.7C181.8,35.8,181.8,35.8,181.8,35.7L181.8,35.7z"/>
			</g>
			<g>
				<path class="st0" d="M181.9,35.8L181.9,35.8C181.9,35.9,181.9,35.8,181.9,35.8z"/>
			</g>
			<g>
				<path class="st0" d="M182,36.2l-0.1-0.2C181.9,36,181.9,36.1,182,36.2z"/>
			</g>
			<g>
				<path class="st0" d="M181.5,33.2L181.5,33.2C181.4,33.2,181.5,33.2,181.5,33.2z"/>
			</g>
			<g>
				<path class="st0" d="M181.3,32.4c0,0.2,0,0.5,0.1,0.7h0.1C181.3,33.1,181.5,32.5,181.3,32.4z"/>
			</g>
			<g>
				<path class="st0" d="M181,28.9c0.1,0.2,0.1,0.4,0.2,0.7c0-0.1,0.1-0.3,0.2,0C181.3,28.6,181.4,29.8,181,28.9z"/>
			</g>
			<g>
				<path class="st0" d="M180.2,27c0.2,0.3,0.1-0.1,0.1-0.1C180.2,26.7,180.1,26.7,180.2,27z"/>
			</g>
			<g>
				<path class="st0" d="M169.1,16.6l0.1-0.1C168.9,16.4,169.1,16.5,169.1,16.6z"/>
			</g>
			<g>
				<path class="st0" d="M166,16.5c0.1,0.1,0.1,0.1,0.2,0.2l0.2-0.1C166.3,16.5,166.2,16.5,166,16.5z"/>
			</g>
			<g>
				<path class="st0" d="M136.3,33.2c-0.1,0.1-0.3,0.4-0.2,0.6C136.2,33.5,136.3,33.3,136.3,33.2z"/>
			</g>
		</g>
	</g>
</g>
<g class="st1">
	<path class="st0" d="M40.9,37c0,2-0.3,3.9-1,5.6c-0.7,1.7-1.7,3.2-2.9,4.5s-2.8,2.3-4.5,3c-1.8,0.7-3.7,1.1-5.9,1.1
		c-2.2,0-4.1-0.4-5.9-1.1s-3.3-1.7-4.6-3s-2.2-2.8-2.9-4.5c-0.7-1.7-1-3.6-1-5.6c0-2,0.3-3.9,1-5.6c0.7-1.7,1.7-3.2,2.9-4.5
		c1.3-1.3,2.8-2.3,4.6-3c1.8-0.7,3.7-1.1,5.9-1.1c2.2,0,4.1,0.4,5.9,1.1c1.8,0.7,3.3,1.7,4.5,3c1.3,1.3,2.2,2.8,2.9,4.5
		C40.6,33.1,40.9,35,40.9,37z M34.4,37c0-1.4-0.2-2.6-0.5-3.7c-0.4-1.1-0.9-2-1.5-2.8c-0.7-0.8-1.5-1.3-2.4-1.8
		c-1-0.4-2.1-0.6-3.3-0.6c-1.2,0-2.4,0.2-3.3,0.6c-1,0.4-1.8,1-2.5,1.8c-0.7,0.8-1.2,1.7-1.5,2.8c-0.4,1.1-0.5,2.3-0.5,3.7
		c0,1.4,0.2,2.6,0.5,3.7c0.4,1.1,0.9,2,1.5,2.8c0.7,0.8,1.5,1.3,2.5,1.7c1,0.4,2.1,0.6,3.3,0.6c1.2,0,2.3-0.2,3.3-0.6
		c1-0.4,1.8-1,2.4-1.7c0.7-0.8,1.2-1.7,1.5-2.8C34.2,39.6,34.4,38.3,34.4,37z"/>
	<path class="st0" d="M66.2,37c0,2-0.3,3.9-1,5.5c-0.7,1.7-1.7,3.2-2.9,4.4s-2.8,2.2-4.5,2.9s-3.7,1-5.9,1H41.1V23.1h10.8
		c2.2,0,4.1,0.3,5.9,1c1.8,0.7,3.3,1.7,4.5,2.9c1.3,1.2,2.2,2.7,2.9,4.4C65.9,33.1,66.2,35,66.2,37z M59.6,37c0-1.4-0.2-2.6-0.5-3.7
		c-0.4-1.1-0.9-2-1.5-2.8c-0.7-0.8-1.5-1.4-2.4-1.8c-1-0.4-2.1-0.6-3.3-0.6h-4.3v17.8h4.3c1.2,0,2.3-0.2,3.3-0.6s1.8-1,2.4-1.8
		s1.2-1.7,1.5-2.8C59.5,39.6,59.6,38.3,59.6,37z"/>
	<path class="st0" d="M93.7,37c0,2-0.3,3.9-1,5.6c-0.7,1.7-1.7,3.2-2.9,4.5s-2.8,2.3-4.5,3s-3.7,1.1-5.9,1.1c-2.2,0-4.1-0.4-5.9-1.1
		s-3.3-1.7-4.6-3s-2.2-2.8-2.9-4.5c-0.7-1.7-1-3.6-1-5.6c0-2,0.3-3.9,1-5.6c0.7-1.7,1.7-3.2,2.9-4.5c1.3-1.3,2.8-2.3,4.6-3
		c1.8-0.7,3.7-1.1,5.9-1.1c2.2,0,4.1,0.4,5.9,1.1c1.8,0.7,3.3,1.7,4.5,3c1.3,1.3,2.2,2.8,2.9,4.5C93.4,33.1,93.7,35,93.7,37z
		 M87.1,37c0-1.4-0.2-2.6-0.5-3.7c-0.4-1.1-0.9-2-1.5-2.8c-0.7-0.8-1.5-1.3-2.4-1.8c-1-0.4-2.1-0.6-3.3-0.6c-1.2,0-2.4,0.2-3.3,0.6
		c-1,0.4-1.8,1-2.5,1.8c-0.7,0.8-1.2,1.7-1.5,2.8c-0.4,1.1-0.5,2.3-0.5,3.7c0,1.4,0.2,2.6,0.5,3.7c0.4,1.1,0.9,2,1.5,2.8
		c0.7,0.8,1.5,1.3,2.5,1.7c1,0.4,2.1,0.6,3.3,0.6c1.2,0,2.3-0.2,3.3-0.6c1-0.4,1.8-1,2.4-1.7s1.2-1.7,1.5-2.8
		C86.9,39.6,87.1,38.3,87.1,37z"/>
	<path class="st0" d="M97.9,23.1c0.2,0,0.4,0.1,0.5,0.1c0.2,0.1,0.3,0.2,0.4,0.3s0.3,0.3,0.5,0.5l13.2,16.7c-0.1-0.5-0.1-1-0.1-1.6
		c0-0.5,0-1,0-1.4V23.1h5.7v27.7h-3.3c-0.5,0-0.9-0.1-1.3-0.2c-0.3-0.2-0.7-0.4-1-0.8L99.4,33.2c0,0.5,0.1,1,0.1,1.4
		c0,0.5,0,0.9,0,1.3v14.9h-5.7V23.1h3.4C97.5,23.1,97.7,23.1,97.9,23.1z"/>
	<path class="st0" d="M139.8,23.1v5.1H132v22.6h-6.4V28.2h-7.8v-5.1H139.8z"/>
</g>
<g class="st1">
	<path class="st0" d="M190.2,50.8h-6.5V23.1h6.5V50.8z"/>
	<path class="st0" d="M207.3,39.7c0.2,0.5,0.5,1.1,0.7,1.6c0.2-0.6,0.4-1.1,0.7-1.6s0.5-1,0.7-1.5l7.1-14c0.1-0.2,0.3-0.4,0.4-0.6
		c0.1-0.1,0.3-0.2,0.4-0.3c0.2-0.1,0.4-0.1,0.6-0.1c0.2,0,0.5,0,0.7,0h4.9v27.7h-5.7v-16c0-0.8,0-1.6,0.1-2.5l-7.3,14.3
		c-0.2,0.4-0.5,0.8-0.9,1c-0.4,0.2-0.8,0.3-1.3,0.3h-0.9c-0.5,0-0.9-0.1-1.3-0.3c-0.4-0.2-0.7-0.6-0.9-1l-7.4-14.3
		c0,0.4,0.1,0.9,0.1,1.3c0,0.4,0,0.8,0,1.2v16h-5.7V23.1h4.9c0.3,0,0.5,0,0.7,0c0.2,0,0.4,0,0.6,0.1c0.2,0.1,0.3,0.2,0.4,0.3
		c0.1,0.1,0.3,0.3,0.4,0.6l7.1,14.1C206.8,38.6,207.1,39.1,207.3,39.7z"/>
</g>
<g class="st1">
	<path class="st0" d="M249.3,50.8h-5c-0.6,0-1-0.1-1.4-0.4c-0.4-0.3-0.6-0.6-0.8-1l-1.6-4.8H230l-1.6,4.8c-0.1,0.4-0.4,0.7-0.7,1
		c-0.4,0.3-0.8,0.4-1.4,0.4h-5L232,23.1h6.6L249.3,50.8z M231.5,40.2h7.6l-2.6-7.6c-0.2-0.5-0.4-1-0.6-1.7c-0.2-0.7-0.4-1.4-0.7-2.1
		c-0.2,0.8-0.4,1.5-0.6,2.2c-0.2,0.7-0.4,1.2-0.6,1.7L231.5,40.2z"/>
	<path class="st0" d="M259.4,46.2c0.9,0,1.7-0.1,2.4-0.2c0.7-0.2,1.3-0.4,1.9-0.6v-4.2H261c-0.4,0-0.7-0.1-1-0.3s-0.3-0.5-0.3-0.8
		v-3.5h9.9v11.7c-0.7,0.5-1.5,1-2.2,1.3c-0.8,0.4-1.6,0.7-2.5,0.9s-1.8,0.4-2.8,0.5s-2,0.2-3.2,0.2c-2,0-3.9-0.4-5.6-1.1
		s-3.2-1.7-4.5-3s-2.3-2.8-3-4.5c-0.7-1.7-1.1-3.6-1.1-5.6c0-2.1,0.3-4,1-5.7c0.7-1.7,1.7-3.2,2.9-4.5c1.3-1.3,2.8-2.2,4.6-2.9
		c1.8-0.7,3.8-1,6.1-1c1.2,0,2.2,0.1,3.3,0.3c1,0.2,2,0.5,2.8,0.8c0.9,0.3,1.6,0.7,2.4,1.2c0.7,0.5,1.3,1,1.9,1.5l-1.9,2.8
		c-0.2,0.3-0.4,0.5-0.6,0.6c-0.2,0.2-0.5,0.2-0.8,0.2c-0.4,0-0.8-0.1-1.2-0.4c-0.5-0.3-1-0.6-1.4-0.8c-0.5-0.2-0.9-0.4-1.4-0.5
		c-0.5-0.1-1-0.2-1.5-0.3c-0.5-0.1-1.1-0.1-1.8-0.1c-1.2,0-2.3,0.2-3.3,0.6c-1,0.4-1.8,1-2.5,1.8c-0.7,0.8-1.2,1.7-1.6,2.8
		c-0.4,1.1-0.6,2.3-0.6,3.6c0,1.5,0.2,2.8,0.6,3.9c0.4,1.1,1,2.1,1.7,2.9c0.7,0.8,1.6,1.4,2.5,1.8C257.2,46,258.3,46.2,259.4,46.2z"
		/>
	<path class="st0" d="M287.3,23.1V28H276v6.5h8.7v4.8H276v6.6h11.4v4.9h-17.9V23.1H287.3z"/>
	<path class="st0" d="M291.1,23.1c0.2,0,0.4,0.1,0.5,0.1c0.2,0.1,0.3,0.2,0.4,0.3c0.1,0.1,0.3,0.3,0.5,0.5l13.2,16.7
		c-0.1-0.5-0.1-1-0.1-1.6c0-0.5,0-1,0-1.4V23.1h5.7v27.7h-3.3c-0.5,0-0.9-0.1-1.3-0.2c-0.3-0.2-0.7-0.4-1-0.8l-13.1-16.5
		c0,0.5,0.1,1,0.1,1.4c0,0.5,0,0.9,0,1.3v14.9H287V23.1h3.4C290.7,23.1,290.9,23.1,291.1,23.1z"/>
</g>
</svg>
